<svg xmlns="http://www.w3.org/2000/svg" xmlns:xlink="http://www.w3.org/1999/xlink" width="500" zoomAndPan="magnify" viewBox="0 0 375 374.999991" height="500" preserveAspectRatio="xMidYMid meet" version="1.2"><defs/><g id="cdeadf00fc"><rect x="0" width="375" y="0" height="374.999991" style="fill:#ffffff;fill-opacity:1;stroke:none;"/><rect x="0" width="375" y="0" height="374.999991" style="fill:#ffffff;fill-opacity:1;stroke:none;"/><g style="fill:#3d3b3a;fill-opacity:1;"><g transform="translate(108.651469, 204.721607)"><path style="stroke:none" d="M 49.78125 -1.171875 C 50.03125 -0.859375 50.078125 -0.582031 49.921875 -0.34375 C 49.773438 -0.113281 49.492188 0 49.078125 0 L 35.65625 0 C 35.34375 0 35.109375 -0.078125 34.953125 -0.234375 L 16.765625 -22.703125 C 16.515625 -22.441406 15.929688 -21.800781 15.015625 -20.78125 C 14.109375 -19.769531 13.015625 -18.550781 11.734375 -17.125 C 10.460938 -15.695312 9.148438 -14.210938 7.796875 -12.671875 C 6.441406 -11.140625 5.164062 -9.695312 3.96875 -8.34375 C 2.78125 -6.988281 1.820312 -5.894531 1.09375 -5.0625 C 0.363281 -4.238281 0 -3.828125 0 -3.828125 L 0 -61.703125 C 0 -62.171875 0.285156 -62.40625 0.859375 -62.40625 L 11.15625 -62.40625 C 11.675781 -62.40625 11.9375 -62.171875 11.9375 -61.703125 L 11.9375 -33.3125 L 35.421875 -62.171875 C 35.578125 -62.328125 35.8125 -62.40625 36.125 -62.40625 L 48.84375 -62.40625 C 49.257812 -62.40625 49.546875 -62.273438 49.703125 -62.015625 C 49.859375 -61.753906 49.804688 -61.5 49.546875 -61.25 L 24.734375 -30.65625 Z M 49.78125 -1.171875 "/></g></g><g style="fill:#3d3b3a;fill-opacity:1;"><g transform="translate(161.157787, 204.721607)"><path style="stroke:none" d="M 11.078125 -62.40625 C 14.097656 -62.40625 17.296875 -62.195312 20.671875 -61.78125 C 24.054688 -61.375 27.332031 -60.570312 30.5 -59.375 C 33.675781 -58.175781 36.550781 -56.429688 39.125 -54.140625 C 41.695312 -51.847656 43.75 -48.84375 45.28125 -45.125 C 46.820312 -41.40625 47.59375 -36.765625 47.59375 -31.203125 C 47.59375 -25.847656 46.835938 -21.335938 45.328125 -17.671875 C 43.816406 -14.003906 41.785156 -11.015625 39.234375 -8.703125 C 36.691406 -6.390625 33.820312 -4.59375 30.625 -3.3125 C 27.425781 -2.039062 24.148438 -1.171875 20.796875 -0.703125 C 17.441406 -0.234375 14.203125 0 11.078125 0 L 0.859375 0 C 0.285156 0 0 -0.234375 0 -0.703125 L 0 -25.203125 L 11.9375 -25.203125 L 11.9375 -11.46875 C 13.445312 -11.414062 15.210938 -11.453125 17.234375 -11.578125 C 19.265625 -11.710938 21.347656 -12.101562 23.484375 -12.75 C 25.617188 -13.40625 27.609375 -14.429688 29.453125 -15.828125 C 31.296875 -17.234375 32.773438 -19.1875 33.890625 -21.6875 C 35.015625 -24.1875 35.578125 -27.359375 35.578125 -31.203125 C 35.578125 -36.148438 34.546875 -40.117188 32.484375 -43.109375 C 30.429688 -46.097656 27.625 -48.226562 24.0625 -49.5 C 20.5 -50.769531 16.457031 -51.273438 11.9375 -51.015625 L 11.9375 -37.21875 L 0 -37.21875 L 0 -61.703125 C 0 -62.171875 0.285156 -62.40625 0.859375 -62.40625 Z M 11.078125 -62.40625 "/></g></g><g style="fill:#3d3b3a;fill-opacity:1;"><g transform="translate(211.167512, 204.721607)"><path style="stroke:none" d="M 51.640625 -62.40625 C 52.210938 -62.40625 52.5 -62.171875 52.5 -61.703125 L 52.5 -0.703125 C 52.5 -0.234375 52.210938 0 51.640625 0 L 41.34375 0 C 41.289062 0 41.171875 -0.0234375 40.984375 -0.078125 C 40.804688 -0.128906 40.691406 -0.179688 40.640625 -0.234375 L 11.9375 -41.34375 L 11.9375 -14.984375 L 0 -14.984375 L 0 -61.703125 C 0 -62.171875 0.257812 -62.40625 0.78125 -62.40625 L 11.15625 -62.40625 C 11.257812 -62.40625 11.390625 -62.390625 11.546875 -62.359375 C 11.703125 -62.335938 11.804688 -62.273438 11.859375 -62.171875 L 40.640625 -21.0625 L 40.640625 -61.703125 C 40.640625 -62.171875 40.953125 -62.40625 41.578125 -62.40625 Z M 51.640625 -62.40625 "/></g></g><path style="fill:none;stroke-width:12;stroke-linecap:butt;stroke-linejoin:miter;stroke:#3d3b3a;stroke-opacity:1;stroke-miterlimit:4;" d="M -0.000239058 5.997635 L 249.989361 5.997635 " transform="matrix(0.75,0,0,0.75,93.754086,208.302555)"/></g></svg>