<svg xmlns="http://www.w3.org/2000/svg" xmlns:xlink="http://www.w3.org/1999/xlink" width="500" zoomAndPan="magnify" viewBox="0 0 375 374.999991" height="500" preserveAspectRatio="xMidYMid meet" version="1.2"><defs/><g id="b04ed0b384"><g style="fill:#3d3b3a;fill-opacity:1;"><g transform="translate(26.44882, 266.043751)"><path style="stroke:none" d="M 101.671875 -2.390625 C 102.203125 -1.753906 102.304688 -1.195312 101.984375 -0.71875 C 101.671875 -0.238281 101.085938 0 100.234375 0 L 72.828125 0 C 72.191406 0 71.710938 -0.160156 71.390625 -0.484375 L 34.265625 -46.375 C 33.734375 -45.84375 32.535156 -44.539062 30.671875 -42.46875 C 28.816406 -40.394531 26.585938 -37.894531 23.984375 -34.96875 C 21.378906 -32.050781 18.695312 -29.023438 15.9375 -25.890625 C 13.175781 -22.753906 10.570312 -19.804688 8.125 -17.046875 C 5.6875 -14.285156 3.722656 -12.054688 2.234375 -10.359375 C 0.742188 -8.660156 0 -7.8125 0 -7.8125 L 0 -126.046875 C 0 -127.003906 0.582031 -127.484375 1.75 -127.484375 L 22.78125 -127.484375 C 23.84375 -127.484375 24.375 -127.003906 24.375 -126.046875 L 24.375 -68.046875 L 72.34375 -127.015625 C 72.664062 -127.328125 73.144531 -127.484375 73.78125 -127.484375 L 99.765625 -127.484375 C 100.609375 -127.484375 101.1875 -127.21875 101.5 -126.6875 C 101.820312 -126.15625 101.71875 -125.625 101.1875 -125.09375 L 50.515625 -62.625 Z M 101.671875 -2.390625 "/></g></g><g style="fill:#3d3b3a;fill-opacity:1;"><g transform="translate(133.695034, 266.043751)"><path style="stroke:none" d="M 22.625 -127.484375 C 28.789062 -127.484375 35.328125 -127.054688 42.234375 -126.203125 C 49.140625 -125.359375 55.832031 -123.710938 62.3125 -121.265625 C 68.789062 -118.828125 74.660156 -115.269531 79.921875 -110.59375 C 85.179688 -105.914062 89.375 -99.78125 92.5 -92.1875 C 95.632812 -84.59375 97.203125 -75.113281 97.203125 -63.75 C 97.203125 -52.800781 95.660156 -43.582031 92.578125 -36.09375 C 89.503906 -28.601562 85.363281 -22.492188 80.15625 -17.765625 C 74.945312 -13.035156 69.078125 -9.367188 62.546875 -6.765625 C 56.015625 -4.171875 49.320312 -2.394531 42.46875 -1.4375 C 35.613281 -0.476562 29 0 22.625 0 L 1.75 0 C 0.582031 0 0 -0.476562 0 -1.4375 L 0 -51.46875 L 24.375 -51.46875 L 24.375 -23.421875 C 27.457031 -23.316406 31.070312 -23.394531 35.21875 -23.65625 C 39.363281 -23.925781 43.613281 -24.722656 47.96875 -26.046875 C 52.320312 -27.378906 56.382812 -29.476562 60.15625 -32.34375 C 63.925781 -35.21875 66.953125 -39.203125 69.234375 -44.296875 C 71.523438 -49.398438 72.671875 -55.882812 72.671875 -63.75 C 72.671875 -73.84375 70.570312 -81.941406 66.375 -88.046875 C 62.175781 -94.148438 56.4375 -98.503906 49.15625 -101.109375 C 41.882812 -103.710938 33.625 -104.75 24.375 -104.21875 L 24.375 -76.015625 L 0 -76.015625 L 0 -126.046875 C 0 -127.003906 0.582031 -127.484375 1.75 -127.484375 Z M 22.625 -127.484375 "/></g></g><g style="fill:#3d3b3a;fill-opacity:1;"><g transform="translate(235.841861, 266.043751)"><path style="stroke:none" d="M 105.5 -127.484375 C 106.664062 -127.484375 107.25 -127.003906 107.25 -126.046875 L 107.25 -1.4375 C 107.25 -0.476562 106.664062 0 105.5 0 L 84.453125 0 C 84.347656 0 84.109375 -0.0507812 83.734375 -0.15625 C 83.367188 -0.257812 83.132812 -0.367188 83.03125 -0.484375 L 24.375 -84.453125 L 24.375 -30.59375 L 0 -30.59375 L 0 -126.046875 C 0 -127.003906 0.53125 -127.484375 1.59375 -127.484375 L 22.78125 -127.484375 C 23 -127.484375 23.265625 -127.457031 23.578125 -127.40625 C 23.898438 -127.351562 24.113281 -127.222656 24.21875 -127.015625 L 83.03125 -43.03125 L 83.03125 -126.046875 C 83.03125 -127.003906 83.664062 -127.484375 84.9375 -127.484375 Z M 105.5 -127.484375 "/></g></g><path style="fill:none;stroke-width:12;stroke-linecap:butt;stroke-linejoin:miter;stroke:#3d3b3a;stroke-opacity:1;stroke-miterlimit:4;" d="M -0.000649401 6.002081 L 429.020197 6.002081 " transform="matrix(0.749973,0.000000000000000099,-0.000000000000000099,0.749973,23.2583,282.549385)"/></g></svg>